<?xml version="1.0" encoding="utf-8" ?>
<svg xmlns="http://www.w3.org/2000/svg" xmlns:xlink="http://www.w3.org/1999/xlink" width="685" height="159">
	<path fill="#D9D8D8" d="M636.41 59.5232L642.285 59.4806L642.281 89.1758C642.296 91.4148 642.917 100.037 642.049 101.676L641.724 102.225L636.821 102.228L636.793 69.8934L636.842 63.251C636.855 61.9951 637.033 60.6602 636.41 59.5232Z"/>
	<path fill="#D9D8D8" d="M312.299 59.6042L318.155 59.574L318.217 91.5459L318.193 98.9263C318.186 99.7966 318.338 100.915 317.907 101.685L317.562 102.237L312.706 102.214L312.676 72.4321L312.742 63.526C312.747 62.2593 312.972 60.7205 312.299 59.6042Z"/>
	<path fill="#D9D8D8" d="M333.569 59.4155C336.147 58.975 339.493 58.7826 342.002 59.5936C346.571 61.0698 349.504 64.0015 351.653 68.2114L347.379 70.2828C346.641 68.946 345.65 67.5615 344.524 66.5208C342.325 64.4876 339.892 63.905 336.981 64.0476C335.522 64.1191 333.369 64.8755 332.377 65.9781C331.43 67.0314 330.836 67.9157 330.629 69.3437C330.446 70.5963 330.617 72.1509 331.404 73.1818C335.278 78.2533 343.987 78.5645 348.855 82.9803C351.248 85.1505 352.502 87.7727 352.625 90.9951C352.73 93.7693 351.55 96.458 349.675 98.4722C346.807 101.554 343.43 102.787 339.282 102.932C336.954 102.936 334.55 102.858 332.359 101.987C327.87 100.202 325.18 96.8513 323.298 92.53L327.727 90.3759C329.405 93.8561 330.979 95.9327 334.678 97.4318C336.69 98.2475 340.215 98.2054 342.171 97.3523C343.822 96.6318 345.763 95.301 346.431 93.5527C349.859 84.5758 335.326 82.4696 330.124 78.9723C328.22 77.6926 326.623 75.7578 325.731 73.6421C324.708 71.2173 324.816 68.4216 325.823 66.0085C327.232 62.6283 330.348 60.7324 333.569 59.4155Z"/>
	<path fill="#D9D8D8" d="M660.015 59.081L661.886 58.983C666.772 59.0654 669.877 60.733 673.206 64.184C673.927 64.9315 675.784 67.0417 675.766 68.0613L671.428 70.3868L670.423 68.7489C669.164 66.809 667.229 64.8014 664.869 64.3323C662.355 63.8325 659.311 63.9583 657.145 65.4622C656.066 66.2106 654.999 67.7217 654.774 69.024C653.781 74.7555 660.384 76.5606 664.373 78.1737C666.612 79.0789 668.852 80.1209 670.895 81.4166C672.88 82.6758 674.006 83.9334 675.37 85.8023C675.603 86.1206 675.822 86.4349 675.979 86.7979C676.872 88.8591 677.254 92.3469 676.367 94.4679C675.478 96.5929 674.626 97.7852 672.961 99.3988C669.287 102.959 665.357 102.984 660.562 102.904C659.486 102.931 657.887 102.678 656.887 102.27C651.915 100.243 649.483 97.2371 647.456 92.4268L651.962 90.2752C652.809 92.0295 653.682 94.1526 655.267 95.3759C656.223 96.1139 657.202 96.4452 658.206 97.0305C659.564 97.822 661.812 98.1824 663.377 98.0594C665.53 97.8904 668.095 96.7744 669.51 95.1279C670.211 94.3119 671.362 92.1574 671.228 91.0897C670.225 83.0346 659.19 82.8653 653.946 78.6671C651.65 76.8288 649.592 74.5754 649.268 71.5263C648.946 68.4893 649.166 66.3258 651.174 63.8738C653.398 61.1574 656.511 59.4155 660.015 59.081Z"/>
	<path fill="#D9D8D8" d="M565.206 59.5423L590.59 59.5069L590.793 64.9915L571.099 64.9745L571.134 78.1894L586.163 78.1775L586.263 83.4827L571.197 83.4683C571.217 84.885 571.359 86.2973 570.545 87.5332L570.84 87.9553C571.79 89.4869 571.126 94.963 571.089 96.9435C571.938 97.3987 588.442 97.0321 591.014 97.0456L591.148 102.22L565.728 102.225L565.641 72.3997L565.681 63.351C565.682 62.0754 565.891 60.673 565.206 59.5423Z"/>
	<path fill="#D9D8D8" d="M406.198 59.7502C407.214 59.5558 408.931 59.3224 409.947 59.5711C410.903 59.8051 412.149 61.5315 412.634 62.358C413.328 63.5417 414.487 64.6347 415.339 65.7268L421.134 73.2178L435.689 92.1171L435.805 59.5767L441.096 59.5653L441.376 89.45L441.367 97.1104C441.359 98.8628 441.495 100.613 440.917 102.293L437.086 102.209L411.859 69.7236L411.822 102.258L406.516 102.216L406.369 71.9503C406.367 68.2243 407 63.3998 406.219 59.8402L406.198 59.7502Z"/>
	<path fill="#D9D8D8" d="M244.811 59.7494C246.027 59.4864 248.147 59.279 249.29 59.8238C249.609 59.9756 249.839 60.2163 250.01 60.5204C250.833 61.9895 251.342 63.6979 252.058 65.2291L258.71 80.1173C261.93 87.4388 265.695 94.6757 268.403 102.192L262.726 102.227C262.251 100.516 261.246 98.8132 260.55 97.1586C259.904 95.6221 259.386 93.6956 258.389 92.3671L249.099 92.435L236.27 92.3454L231.97 102.267L226.201 102.189L237.83 75.9854L242.735 64.9326C243.446 63.3283 244.56 61.581 244.801 59.8327L244.811 59.7494ZM247.041 66.8569L247.023 66.9766C246.702 69.127 245.529 71.0642 244.689 73.0426L238.477 87.5329L247.092 87.6168L256.529 87.5908L250.071 73.189C249.337 71.4875 248.408 67.9595 247.041 66.8569Z"/>
	<path fill="#D9D8D8" d="M177.124 59.6347C177.544 59.6213 182.678 59.5323 182.767 59.6153C183.108 59.9345 183.543 61.0225 183.78 61.4819L186.665 67.4968C187.768 69.7874 199.527 94.4664 199.795 94.6306L213.269 66.755C214.29 64.6566 215.287 61.2806 216.811 59.6005L221.818 59.6216L221.838 102.239L216.663 102.204C216.247 101.474 216.494 99.6948 216.498 98.8234L216.52 86.8649C216.516 85.7399 216.768 83.7317 216.224 82.7427L215.878 82.1805L216.151 81.6906C217.081 79.8222 216.365 74.4336 216.26 72.2078L201.876 102.24L197.465 102.162L188 82.2816C186.33 78.8315 184.35 75.2455 183.129 71.6094L183.11 102.215L177.493 102.177L177.53 70.9784L177.525 63.6074C177.522 62.5703 177.694 61.1516 177.345 60.1858L177.16 59.7103L177.124 59.6347Z"/>
	<path fill="#D9D8D8" d="M514.122 59.5406L519.909 59.5456L536.733 94.563L553.519 59.5353L558.853 59.5317L558.982 102.221L553.323 102.201C553.314 99.3166 553.802 85.7207 552.9 84.0802L552.554 83.5171L552.842 83.0945C553.823 81.4727 553.145 74.8051 553.094 72.79L538.9 102.315L534.434 102.153L520.252 72.7718L520.11 102.217L514.605 102.22L514.578 73.8893L514.663 64.3745C514.669 63.1468 514.893 61.3265 514.427 60.2008L514.171 59.6309L514.122 59.5406Z"/>
	<path fill="#D9D8D8" d="M272.577 59.6007C278.665 59.4597 286.311 58.8577 292.137 60.6284C298.245 62.485 302.354 66.4793 305.253 72.0482C307.756 76.8554 307.429 83.3413 305.84 88.365C305.079 90.7681 302.813 94.9536 300.468 96.1214L300.343 96.5052C293.079 103.668 282.154 102.218 272.828 102.204C272.93 96.8276 273.614 61.8042 272.615 59.6781L272.577 59.6007ZM277.825 64.8549L277.871 64.9583C278.893 67.309 278.362 71.5486 278.368 74.1379L278.398 96.9913C285.106 96.9801 291.17 97.6441 296.554 92.9315L296.799 92.2922C298.573 91.5168 299.819 88.8294 300.494 87.1011C302.071 83.0634 301.808 77.7565 300.07 73.8422C298.581 70.4884 295.739 67.5401 292.275 66.2334C287.789 64.5414 282.564 64.7645 277.825 64.8549Z"/>
	<path fill="#D9D8D8" d="M596.589 59.5391C602.395 59.411 608.436 59.1688 614.172 60.1356C619.505 61.0344 624.354 64.1234 627.464 68.55C630.708 73.1671 631.964 79.5599 630.925 85.1045C630.177 89.0946 628.008 93.8387 624.593 96.1932L624.438 96.7142C621.664 98.9753 618.531 100.833 615.04 101.728C613.343 102.163 611.164 102.079 609.412 102.136L596.941 102.204L597.053 72.0211C597.066 69.7092 597.688 61.837 596.857 60.0549L596.632 59.6094L596.589 59.5391ZM602.047 64.9502C603.27 66.7133 602.556 92.6762 602.542 96.9714C608.293 96.9468 615.813 97.6963 620.27 93.2041C620.44 93.0321 620.519 92.8392 620.575 92.6052C622.47 91.7507 623.938 88.7675 624.641 86.8973C626.173 82.8216 625.833 77.6684 624.043 73.7294C622.5 70.3333 619.716 67.6053 616.213 66.3054C611.609 64.5963 606.887 64.9796 602.047 64.9502Z"/>
	<path fill="#D9D8D8" d="M374.866 59.4157L375.551 59.3007C381.569 58.4076 387.111 60.02 391.931 63.6195C396.771 67.2331 399.584 72.5513 400.386 78.4753C401.172 84.279 399.261 89.8319 395.796 94.4111C392.499 98.7671 387.078 101.818 381.711 102.567L381.453 102.673C377.815 103.693 371.293 101.89 368.178 100.092C362.795 96.9851 359.065 91.9351 357.524 85.9458C356.202 80.8052 357.406 74.2906 360.119 69.7706C363.536 64.08 368.56 61.0014 374.866 59.4157ZM377.046 64.4367C372.189 65.5067 368.109 67.4381 365.362 71.7309C362.792 75.7452 362.163 80.7624 363.168 85.3777C364.004 89.2196 367.165 93.0545 370.461 95.1267C372.792 96.5921 376.603 97.786 379.406 97.5758C384.432 96.8845 388.442 95.0793 391.562 90.9344C393.937 87.7785 395.288 83.0681 394.711 79.1657C393.949 74.0116 391.804 70.2845 387.592 67.1698C384.444 64.8424 380.889 64.2584 377.046 64.4367Z"/>
	<path fill="#D9D8D8" d="M465.017 59.4157L465.461 59.3676C471.846 58.7609 477.502 59.8051 482.568 64.026C487.448 68.092 490.03 73.3297 490.595 79.6026C491.11 85.3131 488.892 90.9179 485.263 95.2569C482.102 99.0374 476.604 102.15 471.684 102.592L471.5 102.671C467.888 103.741 461.563 101.866 458.423 100.135C453.519 97.4331 449.417 92.4555 447.869 87.048C446.376 81.8317 447.003 75.4333 449.638 70.6724C453.156 64.317 458.246 61.3476 465.017 59.4157ZM467.367 64.4368C466.122 64.7721 464.805 64.9063 463.592 65.3331C459.943 66.6161 456.963 69.1667 455.04 72.5072C452.852 76.3096 452.172 80.767 453.338 85.0076C454.605 89.6165 457.08 93.153 461.293 95.5302C463.477 96.7628 466.816 97.765 469.337 97.5919C474.106 97.0325 478.189 95.3133 481.238 91.4738C483.923 88.093 485.323 83.4835 484.835 79.1653C484.319 74.6089 481.999 70.4751 478.386 67.6605C475.203 65.1815 471.394 64.0978 467.367 64.4368Z"/>
	<path fill="#D9D8D8" d="M89.2008 14.1455C92.546 13.5693 95.6684 15.2859 97.3733 18.2432C97.8073 18.9961 98.1303 20.2645 98.7236 20.8347C99.5757 21.6536 101.732 22.2659 102.808 22.9517C104.113 23.7834 105.13 24.9826 106.481 25.7612C109.437 27.4641 113.191 27.2339 116.165 29.0233C123.608 33.5018 128.473 43.4542 132.967 50.5457C134.631 53.1715 137.15 56.0439 137.888 59.0811C136.069 64.2145 140.638 66.5858 141.458 71.1042C141.976 73.9595 141.611 76.8798 140.505 79.5284C140.158 80.3575 139.658 80.8948 139.581 81.8275C139.259 85.7007 139.917 89.8391 139.859 93.7848C139.858 93.8388 139.875 93.8961 139.857 93.947C139.306 95.4685 136.36 96.7972 135.365 98.278L135.294 98.3858C134.169 100.037 135.128 103.443 134.848 105.429C134.578 107.339 132.648 109.69 131.737 111.489C131.223 112.503 130.933 113.678 130.23 114.587C129.172 115.953 127.587 116.908 126.646 118.359C124.986 120.92 123.974 124.797 121.462 126.651C119.056 128.428 114.951 127.674 112.226 129.071C109.739 130.346 108.437 133.005 106.195 134.588C105.321 135.204 104.209 135.448 103.275 135.971C101.655 136.879 100.201 138.087 98.5324 138.919C95.7384 140.314 92.7302 141.21 89.8916 142.517C85.7247 144.436 81.6911 146.851 76.9817 147.101C71.7187 147.38 66.0657 145.769 60.8854 144.875L43.3755 139.232C40.6573 138.388 37.2441 137.944 34.7638 136.632C32.9263 135.659 32.1531 133.589 30.6199 132.306C29.5079 131.375 27.7575 130.912 26.4647 130.225C24.572 129.219 22.9611 127.744 21.8163 125.929C20.2724 123.482 19.8722 120.932 19.0158 118.221C18.38 116.208 17.4365 114.287 16.4575 112.421C14.914 109.478 11.6101 106.759 10.7109 103.693C9.47483 99.4791 8.43083 94.7727 8.31044 90.3789C8.20679 86.5965 8.67522 82.8383 8.61831 79.083C8.5779 76.4164 7.93435 73.5223 8.40964 70.8983C8.98038 67.7475 10.7377 64.786 11.4598 61.6032C12.1875 58.3952 12.2792 54.6132 13.8779 51.6898L21.3442 39.114C23.4682 35.6968 25.4126 32.009 28.6674 29.5384C31.554 27.3474 35.0867 26.2952 37.9215 24.0046C38.8242 23.2752 43.3569 19.2113 44.0917 19.2708C45.0785 19.3506 46.2962 20.6334 47.1779 20.7191C47.8847 20.7878 51.5389 18.5662 52.4376 18.1641C53.3951 17.7357 54.5152 17.427 55.5414 17.2142C58.6121 16.5772 61.8713 18.0207 65.0205 17.6575C65.9948 17.5451 67.1333 16.8697 68.042 16.4801C69.6473 15.7919 71.4995 15.1413 73.2453 14.9607C76.2895 14.6457 79.4135 15.6354 82.4475 15.5788C84.7071 15.5366 87.0415 14.7709 89.2008 14.1455ZM114.061 59.4553L112.888 59.8708C116.821 65.8898 119.492 75.3251 117.988 82.5216C117.212 86.2407 115.526 89.2653 113.901 92.6296C112.16 96.2343 110.557 99.9735 108.061 103.142C106.462 105.173 104.316 106.957 102.427 108.725C99.4421 111.517 96.3693 114.505 92.9399 116.736C90.3783 118.403 86.5741 118.938 83.6536 119.865C81.5022 120.547 79.1159 121.707 76.8862 121.933C74.3624 122.189 71.0619 121.748 68.5611 121.201C65.634 120.56 62.9667 119.178 60.1218 118.28C57.4575 117.439 53.98 117.37 51.5959 115.898C49.5126 114.611 47.4402 111.79 46.0315 109.764L45.3257 111.406L38.3352 102.319C37.5624 103.067 36.0171 104.244 35.5641 105.176C35.1501 106.027 35.6606 106.913 35.9288 107.755C35.7273 108.218 35.5502 108.733 35.2218 109.12C36.1755 110.65 37.2993 112.094 38.5297 113.41C39.6785 114.64 44.7827 118.787 44.9754 119.945C45.4859 120.429 46.1572 121.058 46.9203 121.021L47.0831 120.999C48.439 120.89 49.8716 121.641 51.1622 122.02C53.1765 122.611 55.2621 123.012 57.2481 123.694C61.7931 125.255 66.7115 128.22 71.5793 128.146C77.7873 128.052 84.56 126.501 90.0554 123.545C92.5045 122.227 94.6496 120.521 96.9188 118.935C98.5132 117.821 100.292 116.822 101.81 115.625C107.201 111.373 111.812 106.454 116.575 101.535C116.067 101.576 115.983 101.51 115.564 101.258C115.727 100.82 115.817 100.378 115.91 99.9207L121.666 94.2284C125.097 90.3881 125.123 86.2579 124.814 81.3772C124.548 77.1833 122.907 72.9178 121.432 69.0168C119.348 63.5017 117.134 57.2624 112.55 53.2298L111.976 53.529C111.587 55.5986 113.03 57.744 114.061 59.4553ZM82.8329 48.308C75.845 49.7277 67.9311 48.1755 61.3198 50.9957C59.6969 51.688 58.1748 52.9565 56.7536 53.9952C57.1402 54.8981 57.5952 56.575 58.3535 57.1382C62.2717 55.6765 66.4111 54.2776 70.5525 53.6189C73.4467 53.1586 76.5268 53.7922 79.453 53.8099C83.9549 53.8373 87.6931 52.1985 92.1177 54.1993C97.5743 56.6666 100.753 60.2585 104.286 64.9515C106.463 67.8445 108.447 70.6959 109.712 74.1149C111.819 79.8077 112.219 84.5755 109.619 90.2332C108.086 93.5707 105.998 96.0365 103.625 98.7691C102.121 100.501 100.644 102.281 98.7006 103.538C95.6343 105.521 91.811 106.845 88.3967 108.092C85.6455 109.098 82.5926 109.415 79.7099 109.873C74.4327 110.712 68.7598 112.226 63.6759 109.853L61.7249 108.876C59.0737 107.614 56.2983 107.333 53.6294 106.279C52.1346 105.688 50.6602 104.573 49.3139 103.683L46.2136 106.253C47.8203 108.14 49.4171 110.223 51.6719 111.366C54.6261 112.864 58.2134 112.396 61.3584 113.212C64.5241 114.033 67.5988 116.208 70.8664 116.456C73.0208 116.619 75.1709 115.618 77.2837 115.252C79.9258 114.795 82.6374 114.767 85.2649 114.297C90.1972 113.415 95.5297 110.139 99.2502 106.869C101.588 104.815 103.889 102.519 105.452 99.7974C106.362 98.2133 107.011 96.4338 108.035 94.9185C109.135 93.2907 110.711 91.9385 112.002 90.4554C114.507 87.5767 115.763 83.8526 116.011 80.0831C116.33 75.248 114.007 71.3109 112.053 67.064C110.749 64.2312 109.445 61.0752 107.361 58.7233C103.689 54.5773 96.8445 52.0889 91.8208 50.0917C89.9702 49.3561 87.7626 48.2379 85.7625 48.1367C84.9493 48.0955 83.5851 48.0502 82.8329 48.308ZM48.2462 84.9066L50.0048 71.5303L50.3381 73.3443C50.8487 73.2361 51.0892 72.845 51.4424 72.474C51.9364 69.4858 53.0097 66.4478 55.4524 64.5359C57.584 62.8676 59.2608 62.9478 61.7102 62.272C63.5347 61.7687 65.2511 60.8793 67.1056 60.4685C69.6639 59.9017 72.6447 60.2645 75.222 60.5826C78.5654 61.2313 81.9292 60.8203 85.2883 61.1543C90.8519 61.7075 97.0779 66.4522 100.172 70.9941C102.473 74.3705 102.859 80.1793 102.911 84.2123C102.93 85.7237 102.678 87.4343 103.092 88.8951L103.55 88.5379L103.662 91.4649L103.636 91.7079C103.545 92.7721 103.647 93.9842 104.355 94.8191L104.995 94.6948C107.713 91.3499 109.83 86.4841 110.004 82.1383C110.076 80.3358 109.589 78.7356 109.084 77.0276C107.259 70.8526 103.002 64.6927 98.6216 59.9692C96.4643 57.6429 91.0715 54.8429 87.9823 54.3096C86.0877 53.9825 83.7056 55.0376 81.7165 55.1617C76.8675 55.4643 72.0177 54.5099 67.2602 55.8137C64.8588 56.4718 62.2322 57.23 59.9714 58.2832C59.1212 58.6793 58.3144 59.4993 57.4266 59.7724C57.0574 59.886 56.1155 59.7218 55.6897 59.7053C52.8229 62.4089 50.7719 66.1017 48.3994 69.2359C46.598 71.6156 44.2935 73.9986 42.8097 76.5546C41.7879 78.3147 41.6161 79.2224 42.143 81.1999C42.919 84.1127 44.3509 86.7588 45.4284 89.5555C46.2925 91.7986 47.9088 98.8592 49.8364 99.9668C51.3023 99.0269 52.4719 97.5672 53.6532 96.301C52.0255 94.9166 49.8863 93.3841 48.6776 91.6067C47.2691 89.5355 47.8161 87.1899 48.2462 84.9066ZM46.0315 109.764C47.4402 111.79 49.5126 114.611 51.5959 115.898C53.98 117.37 57.4575 117.439 60.1218 118.28C62.9667 119.178 65.634 120.56 68.5611 121.201C71.0619 121.748 74.3624 122.189 76.8862 121.933C79.1159 121.707 81.5022 120.547 83.6536 119.865C86.5741 118.938 90.3783 118.403 92.9399 116.736C96.3693 114.505 99.4421 111.517 102.427 108.725C104.316 106.957 106.462 105.173 108.061 103.142C110.557 99.9735 112.16 96.2343 113.901 92.6296C115.526 89.2653 117.212 86.2407 117.988 82.5216C119.492 75.3251 116.821 65.8898 112.888 59.8708C111.16 57.2549 109.829 53.5788 107.544 51.4767C105.749 49.8258 101.674 48.7377 99.3401 47.7887C94.514 45.8261 89.2215 42.8369 84.1784 41.8049C82.2827 41.417 80.4007 41.2277 78.4686 41.3922C73.9347 41.7781 69.3271 43.2999 64.917 44.4123C61.0113 45.3976 56.9647 46.0805 53.2336 47.6277L56.0032 52.468C58.0522 51.2313 60.2468 49.702 62.4988 48.8967C67.8328 46.9892 74.1881 47.9593 79.7716 47.4574C81.8229 47.2731 84.0817 46.0791 86.1145 46.5718C89.3305 47.3512 92.1906 48.7271 95.2138 50.0161C99.8877 52.009 106.902 54.3563 109.613 58.9391C110.839 61.0108 111.733 63.5017 112.76 65.6926C115.869 72.3222 118.626 77.345 116.658 84.8633C115.391 89.7063 112.216 91.9814 109.327 95.7689C108.038 97.4603 107.222 99.4991 106.122 101.316C103.342 105.91 98.6766 109.689 94.0929 112.366C91.2967 113.998 87.8545 115.71 84.596 116.084C82.2707 116.351 79.8676 116.229 77.563 116.65C74.6871 117.176 72.1625 118.655 69.1769 117.881C66.3432 117.146 63.7389 115.369 60.9678 114.727C57.6015 113.946 53.665 114.474 50.4949 112.769C48.3096 111.594 47.239 109.005 45.2231 107.903L44.9866 108.395L46.0315 109.764ZM63.3044 133.753C64.5208 134.525 68.26 133.457 68.7959 134.404L66.7774 135.188C72.3532 134.904 78.9013 136 84.2158 134.29L82.113 134.091L81.9979 133.56C82.8594 132.981 84.0738 132.699 85.0417 132.247C89.1518 130.461 94.3925 128.824 98.0231 126.277C98.6347 125.848 98.9735 125.38 99.2471 124.689L99.1711 122.597L98.6694 122.188C97.1844 122.662 95.8092 123.66 94.48 124.462C91.5299 126.243 88.5314 128.302 85.4018 129.735C83.8274 130.456 81.8173 130.608 80.1062 130.888C77.4005 131.331 74.7679 131.951 72.0142 132.019C68.9152 132.095 65.7936 131.566 62.7136 131.291C60.7337 131.114 58.3836 131.275 56.568 130.359C54.2051 129.167 52.4103 126.446 50.2215 124.883C46.9403 122.538 43.264 121.051 39.8989 118.922C36.6924 116.894 34.2618 114.417 31.9119 111.473C30.8396 110.13 29.4478 108.506 28.903 106.851C28.2526 104.876 28.0915 102.734 27.4972 100.736C26.5084 97.4111 25.0778 94.1794 24.2118 90.8227C22.646 84.7532 22.7702 78.8136 22.351 72.6379C21.5772 72.3278 21.3775 72.3538 20.5429 72.4705C19.7438 73.8773 19.0779 85.866 19.5562 87.6394C20.3858 90.7155 21.7152 93.5349 22.8146 96.5184L28.3013 110.379C29.4255 112.968 30.354 115.47 31.9609 117.817C33.4585 120.005 35.7305 122.108 38.0431 123.409C40.6637 124.882 43.6821 125.632 46.4466 126.801C51.7576 129.046 57.5643 132.826 63.3044 133.753ZM115.813 48.5643L115.56 50.3812L114.263 50.6031C118.238 54.5506 128.51 74.9622 128.555 80.4182C128.605 86.5672 125.511 92.316 123.106 97.7845C122.181 99.888 121.345 102.606 119.717 104.233C117.134 106.816 113.155 108.356 110.083 110.347C108.349 111.471 106.834 112.965 105.306 114.348C103.599 115.893 101.46 118.439 99.1223 118.826C100.123 118.94 101.007 118.856 101.796 119.505C101.583 119.897 101.288 120.391 101.246 120.843C101.166 121.708 101.323 121.901 101.847 122.536C104.074 122.626 112.963 115.765 115.539 114.078C118.486 112.147 120.094 109.252 122.153 106.508C124.033 104.003 125.95 101.837 127.26 98.943C127.992 97.3261 128.289 95.4484 128.646 93.7166L129.786 90.2539C131.443 85.3101 133.077 76.1857 130.827 71.2384C129.055 67.3425 126.17 63.8394 124.244 59.9692C121.487 55.7832 119.938 51.2064 116.587 47.3653L116.009 47.7L115.813 48.5643ZM68.5734 72.7815C67.0198 75.6734 65.4352 79.5317 65.1544 82.8148C66.8533 86.1581 71.4606 89.8632 75.0579 91.0318C78.2337 92.0635 83.0673 90.6569 85.9539 89.1571L86.1519 89.0522C87.9556 88.1118 90.1427 86.6071 90.7939 84.5681C91.2075 83.2729 90.9237 82.059 90.4749 80.8225C87.7608 78.798 82.5947 74.1176 79.302 73.7138C77.4472 73.4863 75.6879 73.9579 73.8711 73.8144C72.0702 73.6721 70.3888 72.7846 68.5734 72.7815ZM51.4424 72.474C51.0892 72.845 50.8487 73.2361 50.3381 73.3443L50.0048 71.5303L48.2462 84.9066L49.3347 84.3493L49.5422 85.883C49.2428 87.4687 48.9422 89.1562 49.9076 90.5886C50.8574 91.9978 53.3937 94.4037 55.0208 94.8261C55.826 94.4196 56.2937 93.7493 56.8392 93.0568C56.5105 91.5421 53.9425 90.9249 53.2526 89.0915C52.2194 86.3458 53.4939 83.6883 53.9646 80.9797C54.6638 76.956 54.7263 72.4472 56.9998 68.917C58.0605 67.2698 59.7867 65.4111 61.7908 64.9967C63.17 64.7115 64.6316 64.7182 65.9926 64.3622C67.7237 63.9093 69.233 62.792 71.0754 62.6727C75.8286 62.3649 81.1517 64.9222 85.625 66.1982C88.3718 66.9817 92.133 67.325 94.529 68.9314C97.8505 71.1584 99.6305 77.1509 100.338 80.986C100.617 82.5004 100.364 84.0546 100.185 85.5692C100.139 85.9641 99.8899 86.9257 99.9676 87.2766C100.099 87.8714 101.077 89.0678 101.431 89.6397L102.014 89.9146L103.092 88.8951C102.678 87.4343 102.93 85.7237 102.911 84.2123C102.859 80.1793 102.473 74.3705 100.172 70.9941C97.0779 66.4522 90.8519 61.7075 85.2883 61.1543C81.9292 60.8203 78.5654 61.2313 75.222 60.5826C72.6447 60.2645 69.6639 59.9017 67.1056 60.4685C65.2511 60.8793 63.5347 61.7687 61.7102 62.272C59.2608 62.9478 57.584 62.8676 55.4524 64.5359C53.0097 66.4478 51.9364 69.4858 51.4424 72.474ZM125.376 58.8027L129.659 66.1311C130.701 67.8139 131.921 69.4903 132.645 71.3362C134.625 76.3904 133.003 84.2095 131.566 89.2998L130.023 94.0995C129.574 95.9554 129.154 97.8998 128.396 99.6529C127.635 101.411 126.487 103.023 125.443 104.621C122.711 108.804 119.35 113.466 115.152 116.247C111.401 118.731 106.519 121.04 103.352 124.195C102.712 124.834 102.602 125.144 102.601 126.028L103.352 126.581C105.162 126.158 107.082 123.926 108.716 122.911C111.882 120.944 115.535 120.187 118.558 117.854C123.326 114.172 126.236 109.332 129.289 104.315C130.321 102.621 131.696 100.789 132.398 98.9492C133.278 96.6399 133.489 93.8779 134.109 91.4574C134.518 89.8583 135.262 88.2039 135.457 86.5699C135.687 84.6456 135.414 82.536 135.444 80.5871C135.484 78.0203 136 75.447 135.704 72.8758C135.358 69.8706 133.974 66.96 132.869 64.1741C131.241 60.0668 129.618 55.6071 127.19 51.8986C125.114 48.7275 122.437 45.843 120.076 42.8737C119.053 43.0804 118.8 43.8058 118.196 44.6258C118.117 46.3414 119.502 47.7151 120.318 49.2241L125.376 58.8027ZM92.0893 90.4066L90.9909 89.3076C87.4855 92.7813 84.8068 95.1664 79.9567 96.5602C78.9792 96.8411 77.7695 97.3191 76.7615 97.3043C74.1009 97.2652 72.6287 94.7069 70.5312 93.639L69.7202 94.6808C70.7714 95.5089 74.916 98.2986 75.0891 99.2528L72.6235 99.358C72.1265 100.062 71.9818 100.3 71.1675 100.659C69.9825 100.274 68.5772 99.898 67.539 99.2036C64.9672 97.4832 62.5697 94.3474 59.5361 93.4987C58.2274 94.0556 57.7413 95.4721 57.024 96.6825L61.9029 100.264C65.1046 102.376 68.7466 104.194 72.591 104.708C76.9064 105.284 83.0362 104.041 87.3148 103.152C92.5567 102.064 95.6694 98.7927 98.5219 94.3499C98.8895 93.7774 99.3078 93.1707 99.1254 92.4752C98.9195 91.6901 98.0023 90.9493 97.3315 90.5744C96.3245 91.1249 94.7161 94.2161 93.8706 95.3461L92.9908 94.3268C93.6872 93.4308 94.3827 92.3999 94.8395 91.3622C95.2766 90.3692 95.6077 89.2138 95.2319 88.2032C93.9962 88.1828 92.9961 89.5691 92.0893 90.4066ZM53.942 55.2337C50.8194 56.4231 47.6982 57.9382 45.5039 60.5563C43.8344 62.5482 42.6631 64.9383 41.0168 66.9521C39.5864 68.7019 37.4673 70.5459 36.5507 72.6379C34.3136 77.7438 35.5764 85.5208 37.5983 90.5146C38.6055 93.0021 40.1561 95.2915 41.4797 97.6182C42.7084 99.7782 43.7548 102.108 45.2243 104.115C46.3853 103.959 46.9855 103.046 47.6804 102.116C47.835 101.909 47.933 101.66 48.0156 101.417L44.883 92.7092C43.2907 88.6769 38.8907 81.3787 40.953 77.0197C42.4876 73.776 45.3677 71.0002 47.488 68.1189L52.444 60.9714C53.095 60.125 54.8384 58.6184 55.2198 57.7421C55.2932 57.5734 55.1856 56.9201 55.1293 56.7379C54.9044 56.0103 54.6128 55.5646 53.942 55.2337ZM114.263 50.6031C114.234 50.9645 114.068 51.7291 114.146 52.0516C114.234 52.4117 114.87 53.1484 115.092 53.4835L118.147 58.0149C121.05 62.8053 122.88 68.0468 124.4 73.4226C126.626 81.2931 127.9 88.372 122.574 95.3369C120.888 97.5418 118.54 99.55 116.575 101.535C111.812 106.454 107.201 111.373 101.81 115.625C100.292 116.822 98.5132 117.821 96.9188 118.935C94.6496 120.521 92.5045 122.227 90.0554 123.545C84.56 126.501 77.7873 128.052 71.5793 128.146C66.7115 128.22 61.7931 125.255 57.2481 123.694C55.2621 123.012 53.1765 122.611 51.1622 122.02C49.8716 121.641 48.439 120.89 47.0831 120.999C48.7613 122.074 50.583 123.113 52.1253 124.372C53.7534 125.701 55.3279 127.45 57.1099 128.534C58.5465 129.408 60.3051 129.478 61.9387 129.658C65.7246 130.075 69.5091 130.264 73.3175 130.188C75.5131 130.145 77.6054 129.489 79.7717 129.155C81.4518 128.897 83.6297 128.898 85.1927 128.311C86.7414 127.729 88.4382 126.185 89.8484 125.276C93.2757 123.068 96.2502 121.821 99.1223 118.826C101.46 118.439 103.599 115.893 105.306 114.348C106.834 112.965 108.349 111.471 110.083 110.347C113.155 108.356 117.134 106.816 119.717 104.233C121.345 102.606 122.181 99.888 123.106 97.7845C125.511 92.316 128.605 86.5672 128.555 80.4182C128.51 74.9622 118.238 54.5506 114.263 50.6031ZM70.5312 93.639C72.6287 94.7069 74.1009 97.2652 76.7615 97.3043C77.7695 97.3191 78.9792 96.8411 79.9567 96.5602C84.8068 95.1664 87.4855 92.7813 90.9909 89.3076C92.1684 87.7081 93.2643 86.326 93.6746 84.338C92.0566 85.746 90.8411 87.5714 89.2339 88.9055C86.4428 91.2227 80.1981 93.2078 76.6102 92.9667C72.7461 92.707 67.7276 88.8173 65.2171 85.9096C64.3257 84.8771 63.7823 83.6836 63.9004 82.2961C64.1722 79.1042 65.6616 73.6928 67.9413 71.3631C68.2088 71.2682 68.8086 70.9707 69.0686 70.9635C70.3446 70.9283 71.6664 71.7646 72.915 71.9393C75.5861 72.3131 78.8017 71.4333 81.2948 72.6352C84.5694 74.214 89.6154 77.3642 91.8558 80.237C92.586 81.1733 93.1795 82.4923 94.4885 82.1745C95.0685 81.3053 94.9803 80.2876 94.7935 79.3027C94.4256 77.3629 93.0774 74.9187 91.4131 73.8002C88.5716 71.8904 85.494 72.1295 82.3723 71.2176C78.6894 70.1418 74.8889 68.6582 71.1944 67.7718C70.6181 67.6336 69.9283 67.7091 69.3438 67.7842C66.1308 69.4471 61.6528 74.5331 60.5179 77.9755C59.7596 80.2755 60.4836 84.5719 61.5532 86.6511C62.9731 89.4113 67.9824 91.9608 70.5312 93.639ZM72.6235 99.358L75.0891 99.2528C74.916 98.2986 70.7714 95.5089 69.7202 94.6808C65.6877 92.0108 60.4325 90.0395 59.381 84.9003C58.659 81.3716 58.3751 78.0812 60.4574 74.9475C62.3654 72.076 66.2795 66.5364 69.7942 65.8212C71.4475 65.4848 74.5828 67.2983 76.3249 67.8018C78.5592 68.4476 80.8308 69.134 83.1098 69.5982C85.8251 70.1514 89.395 70.4508 91.7212 72.0326C93.5436 73.2718 95.608 75.6574 95.9943 77.8682C96.3263 79.7677 96.1207 83.0821 97.0232 84.6884L97.666 84.9135C98.2586 84.5377 98.6573 84.3923 98.8377 83.6564C99.516 80.8898 96.9137 74.5963 95.4128 72.281C94.7467 71.2536 93.6365 70.3495 92.5355 69.8308C90.2593 68.7585 87.571 68.5365 85.165 67.8476C81.5832 66.822 78.1044 65.3574 74.4411 64.6187C72.4567 64.2185 70.8073 64.244 68.9127 65.0103C67.9699 65.3915 67.1158 65.9947 66.1142 66.2215C64.3929 66.6112 62.6418 66.5251 60.8967 66.9606C56.3942 70.749 56.5028 74.4507 55.6313 79.8595C55.28 82.0397 54.6364 84.2069 54.4436 86.4087C54.3685 87.2658 54.5087 88.4047 55.0834 89.0712C56.8604 91.1321 60.219 92.023 62.4908 93.4756C64.7817 94.9404 66.6423 96.9872 69.0665 98.2706C70.166 98.8526 71.413 99.1107 72.6235 99.358ZM16.4118 72.5212C15.4677 74.8823 15.5758 77.516 15.3227 80.013C14.9316 83.872 13.5362 89.7962 15.0891 93.3971C16.1802 95.9272 17.372 98.3079 18.2321 100.94C20.2746 107.19 20.9799 112.078 25.473 117.261C26.7541 118.739 28.346 119.838 29.7314 121.201C31.4727 122.914 32.8888 124.932 34.7693 126.512C35.8226 127.397 37.0674 127.954 38.2211 128.683C39.6398 129.578 40.8609 131.688 42.3189 132.251C42.7589 132.42 43.1743 132.512 43.6388 132.394L45.4593 128.044C38.0288 125.486 32.4608 122.951 28.8406 115.539C25.928 109.576 23.6748 103.357 21.2773 97.1881C20.086 94.1231 18.3625 90.7581 17.7883 87.5414C17.1292 83.8496 18.4267 79.4969 18.4231 75.7404C18.422 74.5919 18.5588 73.6048 17.8943 72.6466L16.4118 72.5212ZM61.8641 38.1634C62.5577 38.1749 63.6118 38.0522 64.1986 38.4475L64.5664 39.035C66.6818 38.7004 68.7839 37.973 70.8999 37.5568C76.2443 36.5056 80.2338 37.8222 85.4105 38.7366C85.0413 38.3084 84.6348 38.0057 84.5982 37.4283L85.5582 36.9176C93.0299 38.583 100.811 40.7367 107.591 44.4146C109.715 45.5664 111.356 47.3799 113.547 48.4735C112.175 46.3805 110.412 44.2828 108.32 42.8795C103.919 39.9277 98.4824 38.6394 93.6244 36.6544C90.6298 35.4308 87.3342 33.462 84.1742 32.8029C78.0373 31.5229 72.1473 31.9918 66.0322 33.0265C60.8256 33.9074 55.5403 35.2042 51.0624 38.1809C50.1403 38.7939 49.9966 38.9394 49.6605 40.0011C50.0446 41.0856 50.1009 41.5504 51.0071 42.2897C55.167 41.5438 58.0631 39.7785 61.8641 38.1634ZM77.7703 20.5112C76.0266 20.8181 72.8746 21.4128 71.682 22.7836C71.4369 23.5272 71.2915 23.9979 71.5648 24.7722C72.9965 25.3877 74.9018 25.4242 76.4464 25.6685C78.6199 26.0122 80.6993 26.559 82.8093 27.1764C84.3757 27.6346 86.0303 28.0583 87.4819 28.8141C89.7588 29.9997 91.9004 31.6682 94.2611 32.6439C98.6908 34.4746 103.678 34.7796 108.118 36.6679C110.519 37.6885 112.359 39.1422 114.222 40.9293L116.229 42.8118L116.967 42.7435L118.614 40.4609C114.172 35.9456 108.136 34.7871 102.719 31.9142C100.22 30.5887 98.9467 28.3033 96.7512 26.8675C95.571 26.0957 93.9159 25.7047 92.6035 25.1978L81.8288 21.4545C80.6535 21.102 79.7461 20.501 78.4783 20.4928L77.7703 20.5112ZM84.2158 134.29C78.9013 136 72.3532 134.904 66.7774 135.188C59.9947 136.102 53.435 131.449 47.3279 129.096L46.801 129.543C46.5247 130.438 46.0374 132.219 46.4115 133.089C46.7776 133.94 54.3483 135.239 55.6107 135.594C57.4556 136.113 59.0825 137.31 60.886 137.786C61.8443 138.039 63.0002 137.877 63.999 137.975C66.4529 138.215 68.7352 139.135 70.9741 140.127C72.5492 139.817 74.1623 139.32 75.7581 139.166C77.7509 138.973 79.9804 139.211 81.9206 138.786C83.4573 138.45 84.897 137.464 86.3439 136.857C90.4789 135.122 95.2749 133.788 98.6719 130.715C99.0621 129.704 99.3551 129.258 99.1711 128.176C97.1995 127.886 94.1865 129.938 92.4401 130.76L84.2158 134.29ZM100.331 94.5791C98.0465 97.565 95.3227 101.682 91.9552 103.46C90.539 104.208 88.6965 104.506 87.1197 104.716C82.8845 105.28 78.3956 106.445 74.1223 106.455C67.9851 106.468 61.5576 102.167 56.9094 98.5946L55.8177 97.6622C54.362 99.1435 52.7665 100.612 51.5069 102.262L51.6701 103.104C54.6724 105.252 56.9532 105.33 60.3723 106.361C62.3736 106.965 64.0529 108.452 66.0733 109.104C68.1813 109.785 70.9746 109.379 73.1431 109.127L82.4488 107.896C85.7086 107.354 88.6985 106.231 91.7836 105.09C95.1912 103.829 98.587 102.914 100.801 99.8152C101.435 98.9284 102.344 97.7136 102.134 96.565C102.041 96.0531 101.273 95.1717 100.842 94.8829L100.331 94.5791ZM64.5664 39.035L54.86 43.18C53.9276 43.5458 52.3285 43.9596 51.9366 44.8547C52.5869 45.3977 53.1659 45.4673 54.0173 45.3839C55.8355 45.206 57.7912 44.5822 59.5737 44.1552C66.2028 42.5671 73.149 39.9802 79.985 39.8568C81.813 39.8239 83.8255 40.0093 85.5885 40.5052C88.9362 41.4468 92.3049 43.3501 95.5338 44.6958C99.2822 46.2581 103.336 47.4709 106.931 49.3527C108.077 49.9526 109.518 51.9466 110.626 52.1318C111.241 51.3306 111.842 50.9083 111.76 49.8758C105.133 43.2688 94.3637 40.4102 85.4105 38.7366C80.2338 37.8222 76.2443 36.5056 70.8999 37.5568C68.7839 37.973 66.6818 38.7004 64.5664 39.035ZM35.5358 32.4865C31.2096 36.5751 24.6141 41.035 22.9921 47.0381C22.1387 50.1969 21.8864 53.5064 20.8458 56.6217C19.805 59.7377 17.6392 63.4561 17.5621 66.6715C17.557 66.8845 17.7554 67.0447 17.9023 67.1915C18.3081 67.5968 18.9276 67.7043 19.4686 67.8323C20.9802 64.971 22.8177 61.9746 23.9046 58.9357C25.9622 53.1825 26.4795 47.2657 30.8324 42.5401C32.249 41.0023 34.0308 39.8207 35.7555 38.6621C37.5049 37.4869 38.3048 37.0671 37.5586 34.7875C37.2156 33.7397 36.4063 33.0922 35.5358 32.4865ZM44.9754 119.945C44.7827 118.787 39.6785 114.64 38.5297 113.41C37.2993 112.094 36.1755 110.65 35.2218 109.12C33.2091 106.372 32.5664 103.269 31.5843 100.06C29.1321 92.0468 27.2856 84.8 26.9086 76.3785C26.8612 75.319 27.0724 72.7253 25.9025 72.5589C25.4396 72.493 24.8779 72.612 24.4165 72.6795C22.9236 74.9088 24.1449 80.7235 24.4526 83.3495C24.6629 85.1447 24.6459 86.9932 24.9906 88.77C25.6123 91.9744 27.1712 94.9873 28.2252 98.0694C29.1731 100.841 29.6269 103.898 30.6107 106.577C32.3092 111.203 37.3739 115.279 41.3545 117.945L44.9754 119.945ZM43.3183 42.0549C41.1874 42.2809 38.9003 42.3908 37.4427 44.1905C33.2259 49.397 29.6569 55.0166 27.5707 61.4241C26.7955 63.8049 26.3856 66.3367 25.8934 68.7884L26.2561 69.3084L27.2595 69.2138C27.648 68.603 27.9588 68.012 28.2288 67.3401C30.299 62.0664 31.9975 56.7393 36.2389 52.7656C38.9784 50.1991 42.3615 48.2012 45.3183 45.8724C45.9073 45.4086 47.4076 44.3623 47.6624 43.6763C47.7537 43.4303 47.7115 42.7951 47.7273 42.5116C47.1258 41.8404 46.9331 41.7818 46.0328 41.7332C45.1619 41.6863 44.1765 41.9088 43.3183 42.0549ZM50.5444 48.4507C45.5513 51.5843 42.9793 56.1007 39.5238 60.6551C37.1929 63.7274 34.862 65.6086 33.8066 69.4579L34.0316 70.1274C34.6937 70.1322 35.5587 70.2432 36.1772 69.9958C37.8882 68.2278 39.7844 66.4451 41.2423 64.4642C42.6446 62.5588 43.5474 60.2227 45.2857 58.5906C47.6426 56.3778 50.6739 55.0527 53.5611 53.6951C52.9438 52.3451 51.8679 48.9603 50.5444 48.4507ZM43.049 35.3883C40.7722 36.7543 38.8462 38.4496 36.7034 39.9921C35.2117 41.066 33.5502 41.9672 32.2217 43.251C28.1123 47.2221 27.3056 53.9817 25.3698 59.1495C24.3553 61.8579 22.3591 64.4877 21.6494 67.2336L21.4901 68.1189C21.7231 68.4405 21.8159 68.7358 22.2207 68.8002C22.6904 68.8748 23.2341 69.0367 23.6728 68.8034C25.1338 66.1151 25.2413 63.1012 26.2585 60.2424C28.2176 54.7365 31.0846 50.1948 34.5754 45.5594C35.9861 43.6862 37.1187 41.5911 39.5283 40.8755C41.2888 40.3526 44.0809 40.8025 45.4876 39.8337C45.6295 38.5878 44.2784 36.7451 43.4889 35.7767C43.3634 35.6229 43.2116 35.5008 43.049 35.3883ZM28.5885 72.6918C27.5886 80.8955 29.8071 88.5157 31.8593 96.2869C32.3182 98.0248 33.0414 101.552 34.1466 102.908C34.2686 103.058 34.4496 103.167 34.6179 103.257L36.4044 101.874C37.2071 100.298 36.8942 99.6488 36.3663 98.0008C35.0832 93.9952 32.2529 90.0029 31.7809 85.7911C31.381 82.2223 31.9935 78.5229 31.9913 74.9395C31.9906 73.8271 32.2119 73.3216 31.2732 72.6527C30.364 72.6125 29.4961 72.6031 28.5885 72.6918ZM48.668 45.4515C44.0501 48.6205 37.5594 52.5008 34.4759 57.1995C33.2603 59.0518 32.5184 61.2447 31.6306 63.2651C30.9094 64.9064 29.7252 66.9418 29.419 68.6843L29.3427 69.2905C29.8511 69.9712 30.552 70.118 31.3254 70.3521C32.0414 68.7698 32.714 67.0004 33.6411 65.535C35.1161 63.2033 37.2278 61.2353 38.9105 59.0473C40.8984 56.4626 42.4286 53.7422 44.6354 51.2814C46.1545 49.5875 48.4367 48.164 49.7038 46.3611L49.3976 45.6378L48.668 45.4515ZM71.6419 26.9599L71.763 29.9589L72.2461 30.379C76.4462 30.0675 81.7289 30.3836 85.7922 31.6583C89.2545 32.7444 92.5765 34.4942 95.9607 35.8232C100.268 37.5149 104.535 39.0005 108.556 41.3589C110.828 42.6919 112.58 44.7958 114.855 46.1185C115.01 44.7295 114.798 44.2684 113.899 43.1393C108.716 36.6253 101.287 37.0277 94.2089 34.2411C92.0452 33.3893 89.9626 32.0154 87.8942 30.9353C83.7232 28.7572 79.115 27.6482 74.4681 27.1571L71.6419 26.9599ZM63.671 24.2852C61.3596 24.6139 58.8989 25.3509 56.6118 25.5361C55.1007 25.6585 53.6561 25.2312 52.1653 25.1832C50.2354 25.1211 46.7171 26.7685 45.2202 27.9505C45.1296 28.8156 45.5164 30.0124 46.0896 30.6791C46.2581 30.875 46.4445 31.0271 46.6589 31.1691L49.7607 30.2762C53.5502 28.9923 56.7131 29.4432 60.5117 28.9146C63.6684 28.4754 67.4976 26.3143 69.9276 24.2676L63.671 24.2852ZM68.6173 27.3963C66.3767 28.5517 63.8552 29.8321 61.3751 30.3289C56.6408 31.2773 51.373 30.0593 47.255 33.2202C46.9157 34.2993 47.4236 35.5581 47.9201 36.5223C48.1143 36.8996 48.3566 37.3304 48.6437 37.6413C51.9852 35.9144 55.3742 33.8178 59.0214 32.8381C62.4216 31.9248 65.983 31.6728 69.3441 30.6907C69.6738 30.5944 69.7076 30.265 69.8371 29.9589L69.3427 27.6867L68.6173 27.3963Z"/>
	<path fill="#ABAAAB" d="M61.8641 38.1634C65.8617 36.6117 71.1923 35.006 75.5117 35.0743C78.8802 35.1276 82.3193 36.043 85.5582 36.9176L84.5982 37.4283C84.6348 38.0057 85.0413 38.3084 85.4105 38.7366C80.2338 37.8222 76.2443 36.5056 70.8999 37.5568C68.7839 37.973 66.6818 38.7004 64.5664 39.035L64.1986 38.4475C63.6118 38.0522 62.5577 38.1749 61.8641 38.1634Z"/>
	<path fill="#C5C4C5" d="M92.0893 90.4066C92.9961 89.5691 93.9962 88.1828 95.2319 88.2032C95.6077 89.2138 95.2766 90.3692 94.8395 91.3622C94.3827 92.3999 93.6872 93.4308 92.9908 94.3268L93.8706 95.3461C91.2955 97.9345 86.5798 101.253 82.8619 101.269C81.0935 101.277 79.3576 101.004 77.5977 100.946C75.4269 100.874 73.3214 101.046 71.1675 100.659C71.9818 100.3 72.1265 100.062 72.6235 99.358L75.0891 99.2528C74.916 98.2986 70.7714 95.5089 69.7202 94.6808L70.5312 93.639C72.6287 94.7069 74.1009 97.2652 76.7615 97.3043C77.7695 97.3191 78.9792 96.8411 79.9567 96.5602C84.8068 95.1664 87.4855 92.7813 90.9909 89.3076L92.0893 90.4066ZM92.0893 90.4066C89.4313 93.4559 86.846 95.8467 82.98 97.2207C81.7889 97.644 79.5375 97.858 79.1028 98.9483C80.0049 99.8202 81.7365 99.8682 82.9179 99.8428C86.3918 99.7682 90.3893 96.4001 92.9908 94.3268C93.6872 93.4308 94.3827 92.3999 94.8395 91.3622C95.2766 90.3692 95.6077 89.2138 95.2319 88.2032C93.9962 88.1828 92.9961 89.5691 92.0893 90.4066Z"/>
	<path fill="#ABAAAB" d="M48.2462 84.9066L50.0048 71.5303L50.3381 73.3443C50.8487 73.2361 51.0892 72.845 51.4424 72.474L50.2893 81.8586C50.1279 83.0419 50.0806 84.822 49.5422 85.883L49.3347 84.3493L48.2462 84.9066Z"/>
	<path fill="#C5C4C5" d="M115.813 48.5643C117.435 52.5793 120.201 56.0629 122.288 59.8326C124.445 63.7282 125.685 67.5276 127.319 71.6165C128.205 73.8327 129.424 75.9583 130.006 78.2834C130.956 82.0771 129.16 88.3796 127.658 91.9433C126.679 94.2674 125.426 96.4351 124.323 98.695C122.448 102.533 121.753 105.23 117.999 107.686C115.901 109.059 113.511 109.93 111.441 111.327C107.928 113.698 104.966 116.72 101.796 119.505C101.007 118.856 100.123 118.94 99.1223 118.826C101.46 118.439 103.599 115.893 105.306 114.348C106.834 112.965 108.349 111.471 110.083 110.347C113.155 108.356 117.134 106.816 119.717 104.233C121.345 102.606 122.181 99.888 123.106 97.7845C125.511 92.316 128.605 86.5672 128.555 80.4182C128.51 74.9622 118.238 54.5506 114.263 50.6031L115.56 50.3812L115.813 48.5643Z"/>
	<path fill="#ABAAAB" d="M63.3044 133.753L85.0417 132.247C84.0738 132.699 82.8594 132.981 81.9979 133.56L82.113 134.091L84.2158 134.29C78.9013 136 72.3532 134.904 66.7774 135.188L68.7959 134.404C68.26 133.457 64.5208 134.525 63.3044 133.753Z"/>
	<path fill="#C5C4C5" d="M50.0048 71.5303C51.0497 67.6455 52.1759 64.8365 55.4715 62.3301C57.2872 60.9492 59.6729 60.8334 61.8377 60.341C63.896 59.8729 65.826 59.007 67.866 58.4945C71.356 57.6175 75.6565 58.5748 79.1844 59.0458L80.0977 60.0853L79.7717 60.4407C78.2785 60.4555 76.699 60.3667 75.222 60.5826C72.6447 60.2645 69.6639 59.9017 67.1056 60.4685C65.2511 60.8793 63.5347 61.7687 61.7102 62.272C59.2608 62.9478 57.584 62.8676 55.4524 64.5359C53.0097 66.4478 51.9364 69.4858 51.4424 72.474C51.0892 72.845 50.8487 73.2361 50.3381 73.3443L50.0048 71.5303Z"/>
	<path fill="#ABAAAB" d="M79.1844 59.0458C81.0793 58.9557 83.3237 58.703 85.1921 59.0098C89.1049 59.6525 94.3234 62.8466 97.2607 65.5111C99.0934 67.1735 101.111 69.2778 102.218 71.5141C104.113 75.342 104.423 80.9743 104.626 85.2277C104.724 87.2837 104.177 89.4821 103.662 91.4649L103.55 88.5379L103.092 88.8951C102.678 87.4343 102.93 85.7237 102.911 84.2123C102.859 80.1793 102.473 74.3705 100.172 70.9941C97.0779 66.4522 90.8519 61.7075 85.2883 61.1543C81.9292 60.8203 78.5654 61.2313 75.222 60.5826C76.699 60.3667 78.2785 60.4555 79.7717 60.4407L80.0977 60.0853L79.1844 59.0458Z"/>
	<path fill="#ABAAAB" d="M115.91 99.9207C115.817 100.378 115.727 100.82 115.564 101.258C115.983 101.51 116.067 101.576 116.575 101.535C111.812 106.454 107.201 111.373 101.81 115.625C100.292 116.822 98.5132 117.821 96.9188 118.935C94.6496 120.521 92.5045 122.227 90.0554 123.545C84.56 126.501 77.7873 128.052 71.5793 128.146C66.7115 128.22 61.7931 125.255 57.2481 123.694C55.2621 123.012 53.1765 122.611 51.1622 122.02C49.8716 121.641 48.439 120.89 47.0831 120.999L46.9203 121.021C46.1572 121.058 45.4859 120.429 44.9754 119.945C44.7827 118.787 39.6785 114.64 38.5297 113.41C37.2993 112.094 36.1755 110.65 35.2218 109.12C35.5502 108.733 35.7273 108.218 35.9288 107.755C36.7609 108.279 37.819 109.894 38.5123 110.663C40.1267 112.455 41.8696 114.173 43.6487 115.801C45.087 117.117 46.7737 118.453 48.5531 119.255C51.7636 120.702 55.3829 121.08 58.712 122.181C62.1307 123.311 65.3392 125.044 68.8224 126.053C69.7198 126.313 70.545 126.4 71.4784 126.355C75.2027 126.178 80.2008 125.531 83.7339 124.349C88.1606 122.869 92.6844 120.005 96.4856 117.334C103.935 112.102 109.789 106.636 115.91 99.9207Z"/>
	<path fill="#C5C4C5" d="M114.061 59.4553C117.41 63.9584 118.375 67.4087 119.317 72.9097C119.849 76.0181 120.24 79.0837 119.782 82.2292C119.282 85.6659 117.65 89.1767 116.161 92.2881C114.301 96.1741 112.419 100.161 109.835 103.631C106.48 108.137 100.697 112.94 96.1979 116.267C91.9396 119.415 87.8988 120.356 82.9758 121.979C81.0346 122.619 78.8839 123.592 76.8646 123.87C75.135 124.108 72.9626 123.824 71.2427 123.572C66.9148 122.937 63.2002 121.009 59.0777 119.771C56.3361 118.949 53.3941 119.01 50.9002 117.447C48.7599 116.106 46.8022 113.533 45.3728 111.48L45.3257 111.406L46.0315 109.764C47.4402 111.79 49.5126 114.611 51.5959 115.898C53.98 117.37 57.4575 117.439 60.1218 118.28C62.9667 119.178 65.634 120.56 68.5611 121.201C71.0619 121.748 74.3624 122.189 76.8862 121.933C79.1159 121.707 81.5022 120.547 83.6536 119.865C86.5741 118.938 90.3783 118.403 92.9399 116.736C96.3693 114.505 99.4421 111.517 102.427 108.725C104.316 106.957 106.462 105.173 108.061 103.142C110.557 99.9735 112.16 96.2343 113.901 92.6296C115.526 89.2653 117.212 86.2407 117.988 82.5216C119.492 75.3251 116.821 65.8898 112.888 59.8708L114.061 59.4553Z"/>
</svg>
